/* XPM */
static const char *display_empty_xpm[]={
"36 56 13 1",
". c #000000",
"# c #052005",
"a c #062406",
"b c #062806",
"c c #072d07",
"d c #073107",
"e c #083508",
"f c #093909",
"j c #093d09",
"g c #0a410a",
"h c #0b450b",
"i c #0b490b",
"k c #0d550d",
"....................................",
"....................................",
"....................................",
"....................................",
"....................................",
"....................................",
"....................................",
".......#ab.cdeeeeeeeeeedc.ba#.......",
"......#cd.fghiiiiiiiiiihgf.dc#......",
"......ad.jghkkkkkkkkkkkkhgj.da......",
"......b.j.ghhiiiiiiiiiihhg.j.b......",
".......fgg.feeeeeeeeeeeef.ggf.......",
"......cghhf..............fhhgc......",
"......dhkhe..............ehkhd......",
"......eikie..............eikie......",
"......eikie..............eikie......",
"......eikie..............eikie......",
"......eikie..............eikie......",
"......eikie..............eikie......",
"......eikie..............eikie......",
"......eikie..............eikie......",
"......eikie..............eikie......",
"......eikie..............eikie......",
"......dhkhe..............ehkhd......",
"......cghhf..............fhhgc......",
".......fgg.feeeeeeeeeeeef.ggf.......",
"......a.f.ghhiiiiiiiiiihhg.f.a......",
"......#c.fghkkkkkkkkkkkkhgf.c#......",
"......a.f.ghhiiiiiiiiiihhg.f.a......",
".......fgg.feeeeeeeeeeeef.ggf.......",
"......cghhf..............fhhgc......",
"......dhkhe..............ehkhd......",
"......eikie..............eikie......",
"......eikie..............eikie......",
"......eikie..............eikie......",
"......eikie..............eikie......",
"......eikie..............eikie......",
"......eikie..............eikie......",
"......eikie..............eikie......",
"......eikie..............eikie......",
"......eikie..............eikie......",
"......dhkhe..............ehkhd......",
"......cghhf..............fhhgc......",
".......fgg.feeeeeeeeeeeef.ggf.......",
"......b.j.ghhiiiiiiiiiihhg.j.b......",
"......ad.jghkkkkkkkkkkkkhgj.da......",
"......#cd.fghiiiiiiiiiihgf.dc#......",
".......#ab.cdeeeeeeeeeedc.ba#.......",
"....................................",
"....................................",
"....................................",
"....................................",
"....................................",
"....................................",
"....................................",
"...................................."};
