/* XPM */
static const char *display_5_xpm[]={
"36 56 46 1",
". c #000000",
"# c #000a00",
"t c #001d00",
"H c #002500",
"a c #002600",
"b c #002e00",
"o c #003500",
"f c #004100",
"I c #004500",
"v c #007000",
"c c #052005",
"d c #062406",
"A c #062806",
"P c #062e06",
"e c #063206",
"j c #072d07",
"u c #073107",
"R c #073607",
"k c #073a07",
"g c #07bc07",
"h c #07d507",
"L c #07d607",
"M c #083508",
"C c #08d608",
"i c #08d708",
"G c #093909",
"J c #094209",
"z c #094509",
"s c #09aa09",
"Q c #09ac09",
"p c #09ae09",
"D c #09c009",
"B c #09c209",
"l c #09c709",
"F c #0a410a",
"E c #0a4a0a",
"y c #0ac90a",
"w c #0acc0a",
"q c #0aee0a",
"m c #0af60a",
"K c #0b450b",
"O c #0b490b",
"x c #0bf60b",
"n c #0bfe0b",
"N c #0d550d",
"r c #0dff0d",
"....................................",
"....................................",
"....................................",
"....................................",
"....................................",
"....................................",
"..........#abbbbbbbbbbbba#..........",
".......cdefghiiiiiiiiiihgfedc.......",
"......cjkflmnnnnnnnnnnnnmlfkjc......",
"......dkopqnrrrrrrrrrrrrnqstud......",
"......efpvwxnnnnnnnnnnnnxyfz.A......",
".....#flqwvBCiiiiiiiiiiCDfEFG.......",
".....HgmnxBIbbbbbbbbbbbbaJKKFj......",
".....bLnrnib.............MKNKu......",
".....binrnib.............MONOM......",
".....binrnib.............MONOM......",
".....binrnib.............MONOM......",
".....binrnib.............MONOM......",
".....binrnib.............MONOM......",
".....binrnib.............MONOM......",
".....binrnib.............MONOM......",
".....binrnib.............MONOM......",
".....binrnib.............MONOM......",
".....bLnrnib.............MKNKu......",
".....HgmnxBIbbbbbbbbbbbbaJKKFj......",
".....#flqwvBCiiiiiiiiiiCDfEFG.......",
"......PfQvwxnnnnnnnnnnnnxyfJ.d......",
"......cRoQqnrrrrrrrrrrrrnqQoRc......",
"......d.JfyxnnnnnnnnnnnnxwvQfP......",
".......GFEfDCiiiiiiiiiiCBvwqlf#.....",
"......jFKKJabbbbbbbbbbbbIBxnmgH.....",
"......uKNKM.............binrnLb.....",
"......MONOM.............binrnib.....",
"......MONOM.............binrnib.....",
"......MONOM.............binrnib.....",
"......MONOM.............binrnib.....",
"......MONOM.............binrnib.....",
"......MONOM.............binrnib.....",
"......MONOM.............binrnib.....",
"......MONOM.............binrnib.....",
"......MONOM.............binrnib.....",
"......uKNKM.............binrnLb.....",
"......jFKKJabbbbbbbbbbbbIBxnmgH.....",
".......GFEfDCiiiiiiiiiiCBvwqlf#.....",
"......A.zfyxnnnnnnnnnnnnxwvpfe......",
"......dutsqnrrrrrrrrrrrrnqpokd......",
"......cjkflmnnnnnnnnnnnnmlfkjc......",
".......cdefghiiiiiiiiiihgfedc.......",
"..........#abbbbbbbbbbbba#..........",
"....................................",
"....................................",
"....................................",
"....................................",
"....................................",
"....................................",
"...................................."};
