/* XPM */
static const char *display_a_xpm[]={
"36 56 54 1",
". c #000000",
"# c #000a00",
"A c #001300",
"T c #001d00",
"D c #002400",
"x c #002500",
"a c #002600",
"H c #002d00",
"b c #002e00",
"o c #003500",
"f c #004100",
"y c #004500",
"B c #005600",
"K c #005f00",
"F c #006f00",
"s c #007000",
"c c #052005",
"I c #05bf05",
"d c #062406",
"Z c #062806",
"e c #063206",
"E c #069b06",
"j c #072d07",
"X c #073107",
"k c #073a07",
"J c #07a907",
"g c #07bc07",
"h c #07d507",
"z c #07d607",
"O c #083508",
"w c #08d608",
"i c #08d708",
"Y c #093909",
"N c #094209",
"U c #094509",
"P c #09aa09",
"p c #09ae09",
"G c #09b009",
"L c #09c009",
"v c #09c209",
"l c #09c709",
"C c #09c909",
"V c #0a410a",
"Q c #0a4a0a",
"M c #0ac90a",
"t c #0acc0a",
"q c #0aee0a",
"m c #0af60a",
"R c #0b450b",
"S c #0b490b",
"u c #0bf60b",
"n c #0bfe0b",
"W c #0d550d",
"r c #0dff0d",
"....................................",
"....................................",
"....................................",
"....................................",
"....................................",
"....................................",
"..........#abbbbbbbbbbbba#..........",
".......cdefghiiiiiiiiiihgfedc.......",
"......cjkflmnnnnnnnnnnnnmlfkjc......",
"......dkopqnrrrrrrrrrrrrnqpokd......",
"......efpstunnnnnnnnnnnnutspfe......",
".....#flqtsvwiiiiiiiiiiwvstqlf#.....",
".....xgmnuvybbbbbbbbbbbbyvunmgx.....",
".....bznrnib............binrnzb.....",
".....binrnib............binrnib.....",
".....binrnib............binrnib.....",
".....binrnib............binrnib.....",
".....binrnib............binrnib.....",
".....binrnib............binrnib.....",
".....binrnib............binrnib.....",
".....binrnib............binrnib.....",
".....binrnib............binrnib.....",
".....binrnib............binrnib.....",
".....bznrnib............binrnzb.....",
".....xgmnuvybbbbbbbbbbbbyvunmgx.....",
".....ABCqtsvwiiiiiiiiiiwvstqCBA.....",
".....DEFGstunnnnnnnnnnnnutsGFED.....",
".....HIJKGqnrrrrrrrrrrrrnqGKJIH.....",
".....DEFGstunnnnnnnnnnnnutsGFED.....",
".....ABCqtsvwiiiiiiiiiiwvstqCBA.....",
".....xgmnuvybbbbbbbbbbbbyvunmgx.....",
".....bznrnib............binrnzb.....",
".....binrnib............binrnib.....",
".....binrnib............binrnib.....",
".....binrnib............binrnib.....",
".....binrnib............binrnib.....",
".....binrnib............binrnib.....",
".....binrnib............binrnib.....",
".....binrnib............binrnib.....",
".....binrnib............binrnib.....",
".....binrnib............binrnib.....",
".....bznrnib............binrnzb.....",
".....xgmnuLx............xLunmgx.....",
".....#flqMfNOOOOOOOOOOOONfMqlf#.....",
"......efPfQRRSSSSSSSSSSRRQfPfe......",
"......dkTUVRWWWWWWWWWWWWRVUTkd......",
"......cjX.YVRSSSSSSSSSSRVY.Xjc......",
".......cdZ.jXOOOOOOOOOOXj.Zdc.......",
"....................................",
"....................................",
"....................................",
"....................................",
"....................................",
"....................................",
"....................................",
"...................................."};
