/* XPM */
static const char *display_d_xpm[]={
"36 56 59 1",
". c #000000",
"# c #000a00",
"d c #001300",
"P c #002400",
"c c #002500",
"a c #002600",
"y c #002d00",
"b c #002e00",
"E c #003500",
"e c #004100",
"J c #004500",
"0 c #004c00",
"i c #005600",
"z c #006800",
"R c #006f00",
"r c #007000",
"o c #052005",
"f c #05b705",
"Y c #05bf05",
"n c #062406",
"X c #062e06",
"m c #063206",
"Q c #069b06",
"h c #069d06",
"g c #06c906",
"x c #072d07",
"w c #073a07",
"4 c #073f07",
"Z c #07a907",
"j c #07bc07",
"q c #07c607",
"k c #07d507",
"K c #07d607",
"p c #07eb07",
"O c #083508",
"I c #08d608",
"l c #08d708",
"N c #094209",
"1 c #094a09",
"W c #09a809",
"S c #09ac09",
"D c #09ae09",
"A c #09b109",
"L c #09c009",
"H c #09c209",
"v c #09c709",
"s c #09c909",
"2 c #0a410a",
"T c #0a4a0a",
"M c #0ac90a",
"F c #0acc0a",
"B c #0aee0a",
"t c #0af60a",
"U c #0b450b",
"V c #0b490b",
"G c #0bf60b",
"u c #0bfe0b",
"3 c #0d550d",
"C c #0dff0d",
"....................................",
"....................................",
"....................................",
"....................................",
"....................................",
"....................................",
"......#abcdabbbbbbbbbbbba#..........",
".....#efghijkllllllllllkjemno.......",
".....cfpqrstuuuuuuuuuuuutvewxo......",
".....ygqzABuCCCCCCCCCCCCuBDEwn......",
".....chrArFGuuuuuuuuuuuuGFrDem......",
".....disBFrHIllllllllllIHrFBve#.....",
".....cjtuGHJbbbbbbbbbbbbJHGutjc.....",
".....bKuCulb............bluCuKb.....",
".....bluCulb............bluCulb.....",
".....bluCulb............bluCulb.....",
".....bluCulb............bluCulb.....",
".....bluCulb............bluCulb.....",
".....bluCulb............bluCulb.....",
".....bluCulb............bluCulb.....",
".....bluCulb............bluCulb.....",
".....bluCulb............bluCulb.....",
".....bluCulb............bluCulb.....",
".....bKuCulb............bluCuKb.....",
".....cjtuGLc............cLGutjc.....",
".....disBMeNOOOOOOOOOOOONeMBve#.....",
".....PQRSeTUUVVVVVVVVVVUUTeWeX......",
".....yYZ012U333333333333U21E4o......",
".....PQRSeTUUVVVVVVVVVVUUTeWeX......",
".....disBMeNOOOOOOOOOOOONeMBve#.....",
".....cjtuGLc............cLGutjc.....",
".....bKuCulb............bluCuKb.....",
".....bluCulb............bluCulb.....",
".....bluCulb............bluCulb.....",
".....bluCulb............bluCulb.....",
".....bluCulb............bluCulb.....",
".....bluCulb............bluCulb.....",
".....bluCulb............bluCulb.....",
".....bluCulb............bluCulb.....",
".....bluCulb............bluCulb.....",
".....bluCulb............bluCulb.....",
".....bKuCulb............bluCuKb.....",
".....cjtuGHJbbbbbbbbbbbbJHGutjc.....",
".....disBFrHIllllllllllIHrFBve#.....",
".....chrArFGuuuuuuuuuuuuGFrDem......",
".....ygqzABuCCCCCCCCCCCCuBDEwn......",
".....cfpqrstuuuuuuuuuuuutvewxo......",
".....#efghijkllllllllllkjemno.......",
"......#abcdabbbbbbbbbbbba#..........",
"....................................",
"....................................",
"....................................",
"....................................",
"....................................",
"....................................",
"...................................."};
