/* XPM */
static const char *display_9_xpm[]={
"36 56 49 1",
". c #000000",
"# c #000a00",
"T c #001d00",
"x c #002500",
"a c #002600",
"b c #002e00",
"o c #003500",
"f c #004100",
"y c #004500",
"E c #004c00",
"s c #007000",
"c c #052005",
"d c #062406",
"R c #062806",
"A c #062e06",
"e c #063206",
"j c #072d07",
"N c #073107",
"C c #073607",
"k c #073a07",
"F c #073f07",
"g c #07bc07",
"h c #07d507",
"z c #07d607",
"P c #083508",
"w c #08d608",
"i c #08d708",
"I c #093909",
"G c #094209",
"S c #094509",
"U c #09aa09",
"B c #09ac09",
"p c #09ae09",
"D c #09b009",
"L c #09c009",
"v c #09c209",
"l c #09c709",
"J c #0a410a",
"K c #0a4a0a",
"H c #0ac90a",
"t c #0acc0a",
"q c #0aee0a",
"m c #0af60a",
"M c #0b450b",
"Q c #0b490b",
"u c #0bf60b",
"n c #0bfe0b",
"O c #0d550d",
"r c #0dff0d",
"....................................",
"....................................",
"....................................",
"....................................",
"....................................",
"....................................",
"..........#abbbbbbbbbbbba#..........",
".......cdefghiiiiiiiiiihgfedc.......",
"......cjkflmnnnnnnnnnnnnmlfkjc......",
"......dkopqnrrrrrrrrrrrrnqpokd......",
"......efpstunnnnnnnnnnnnutspfe......",
".....#flqtsvwiiiiiiiiiiwvstqlf#.....",
".....xgmnuvybbbbbbbbbbbbyvunmgx.....",
".....bznrnib............binrnzb.....",
".....binrnib............binrnib.....",
".....binrnib............binrnib.....",
".....binrnib............binrnib.....",
".....binrnib............binrnib.....",
".....binrnib............binrnib.....",
".....binrnib............binrnib.....",
".....binrnib............binrnib.....",
".....binrnib............binrnib.....",
".....binrnib............binrnib.....",
".....bznrnib............binrnzb.....",
".....xgmnuvybbbbbbbbbbbbyvunmgx.....",
".....#flqtsvwiiiiiiiiiiwvstqlf#.....",
"......AfBstunnnnnnnnnnnnutsBfA......",
"......cCoBqnrrrrrrrrrrrrnqDEFc......",
"......d.GfHunnnnnnnnnnnnutsBfA......",
".......IJKfLwiiiiiiiiiiwvstqlf#.....",
"......jJMMGabbbbbbbbbbbbyvunmgx.....",
"......NMOMP.............binrnzb.....",
"......PQOQP.............binrnib.....",
"......PQOQP.............binrnib.....",
"......PQOQP.............binrnib.....",
"......PQOQP.............binrnib.....",
"......PQOQP.............binrnib.....",
"......PQOQP.............binrnib.....",
"......PQOQP.............binrnib.....",
"......PQOQP.............binrnib.....",
"......PQOQP.............binrnib.....",
"......NMOMP.............binrnzb.....",
"......jJMMGabbbbbbbbbbbbyvunmgx.....",
".......IJKfLwiiiiiiiiiiwvstqlf#.....",
"......R.SfHunnnnnnnnnnnnutspfe......",
"......dNTUqnrrrrrrrrrrrrnqpokd......",
"......cjkflmnnnnnnnnnnnnmlfkjc......",
".......cdefghiiiiiiiiiihgfedc.......",
"..........#abbbbbbbbbbbba#..........",
"....................................",
"....................................",
"....................................",
"....................................",
"....................................",
"....................................",
"...................................."};
