/* XPM */
static const char *display_1_xpm[]={
"36 56 40 1",
". c #000000",
"w c #000a00",
"m c #001d00",
"x c #002500",
"D c #002e00",
"K c #003500",
"p c #004100",
"# c #052005",
"a c #062406",
"b c #062806",
"I c #062e06",
"r c #063206",
"c c #072d07",
"d c #073107",
"n c #073a07",
"L c #073f07",
"C c #07bc07",
"G c #07d607",
"e c #083508",
"E c #08d708",
"f c #093909",
"j c #093d09",
"s c #094209",
"l c #094509",
"J c #094a09",
"H c #09a809",
"q c #09aa09",
"y c #09c009",
"v c #09c709",
"g c #0a410a",
"o c #0a4a0a",
"t c #0ac90a",
"u c #0aee0a",
"B c #0af60a",
"h c #0b450b",
"i c #0b490b",
"z c #0bf60b",
"A c #0bfe0b",
"k c #0d550d",
"F c #0dff0d",
"....................................",
"....................................",
"....................................",
"....................................",
"....................................",
"....................................",
"....................................",
".......#ab.cdeeeeeeeeeedc.ba#.......",
"......#cd.fghiiiiiiiiiihgf.dc#......",
"......ad.jghkkkkkkkkkkkkhglmna......",
"......b.j.ghhiiiiiiiiiihhopqpr......",
".......fgg.feeeeeeeeeeeesptuvpw.....",
"......cghhf.............xyzABCx.....",
"......dhkhe.............DEAFAGD.....",
"......eikie.............DEAFAED.....",
"......eikie.............DEAFAED.....",
"......eikie.............DEAFAED.....",
"......eikie.............DEAFAED.....",
"......eikie.............DEAFAED.....",
"......eikie.............DEAFAED.....",
"......eikie.............DEAFAED.....",
"......eikie.............DEAFAED.....",
"......eikie.............DEAFAED.....",
"......dhkhe.............DEAFAGD.....",
"......cghhf.............xyzABCx.....",
".......fgg.feeeeeeeeeeeesptuvpw.....",
"......a.f.ghhiiiiiiiiiihhopHpI......",
"......#c.fghkkkkkkkkkkkkhgJKL#......",
"......a.f.ghhiiiiiiiiiihhopHpI......",
".......fgg.feeeeeeeeeeeesptuvpw.....",
"......cghhf.............xyzABCx.....",
"......dhkhe.............DEAFAGD.....",
"......eikie.............DEAFAED.....",
"......eikie.............DEAFAED.....",
"......eikie.............DEAFAED.....",
"......eikie.............DEAFAED.....",
"......eikie.............DEAFAED.....",
"......eikie.............DEAFAED.....",
"......eikie.............DEAFAED.....",
"......eikie.............DEAFAED.....",
"......eikie.............DEAFAED.....",
"......dhkhe.............DEAFAGD.....",
"......cghhf.............xyzABCx.....",
".......fgg.feeeeeeeeeeeesptuvpw.....",
"......b.j.ghhiiiiiiiiiihhopqpr......",
"......ad.jghkkkkkkkkkkkkhglmna......",
"......#cd.fghiiiiiiiiiihgf.dc#......",
".......#ab.cdeeeeeeeeeedc.ba#.......",
"....................................",
"....................................",
"....................................",
"....................................",
"....................................",
"....................................",
"....................................",
"...................................."};
