/* XPM */
static const char *display_e_xpm[]={
"36 56 60 1",
". c #000000",
"# c #000a00",
"d c #001300",
"E c #001d00",
"Y c #002400",
"c c #002500",
"a c #002600",
"y c #002d00",
"b c #002e00",
"e c #004100",
"R c #004500",
"i c #005600",
"4 c #005f00",
"z c #006800",
"0 c #006f00",
"r c #007000",
"o c #052005",
"f c #05b705",
"2 c #05bf05",
"n c #062406",
"K c #062806",
"m c #063206",
"Z c #069b06",
"h c #069d06",
"g c #06c906",
"x c #072d07",
"F c #073107",
"w c #073a07",
"3 c #07a907",
"j c #07bc07",
"q c #07c607",
"k c #07d507",
"U c #07d607",
"p c #07eb07",
"V c #083508",
"M c #08d608",
"l c #08d708",
"Q c #093909",
"S c #094209",
"J c #094509",
"5 c #09a809",
"D c #09aa09",
"1 c #09b009",
"A c #09b109",
"N c #09c009",
"L c #09c209",
"v c #09c709",
"s c #09c909",
"P c #0a410a",
"O c #0a4a0a",
"I c #0ac90a",
"G c #0acc0a",
"B c #0aee0a",
"t c #0af60a",
"T c #0b450b",
"X c #0b490b",
"H c #0bf60b",
"u c #0bfe0b",
"W c #0d550d",
"C c #0dff0d",
"....................................",
"....................................",
"....................................",
"....................................",
"....................................",
"....................................",
"......#abcdabbbbbbbbbbbba#..........",
".....#efghijkllllllllllkjemno.......",
".....cfpqrstuuuuuuuuuuuutvewxo......",
".....ygqzABuCCCCCCCCCCCCuBDEFn......",
".....chrArGHuuuuuuuuuuuuHIeJ.K......",
".....disBGrLMllllllllllMNeOPQ.......",
".....cjtuHLRbbbbbbbbbbbbaSTTPx......",
".....bUuCulb.............VTWTF......",
".....bluCulb.............VXWXV......",
".....bluCulb.............VXWXV......",
".....bluCulb.............VXWXV......",
".....bluCulb.............VXWXV......",
".....bluCulb.............VXWXV......",
".....bluCulb.............VXWXV......",
".....bluCulb.............VXWXV......",
".....bluCulb.............VXWXV......",
".....bluCulb.............VXWXV......",
".....bUuCulb.............VTWTF......",
".....cjtuHLRbbbbbbbbbbbbaSTTPx......",
".....disBGrLMllllllllllMNeOPQ.......",
".....YZ01rGHuuuuuuuuuuuuHIeS.n......",
".....y2341BuCCCCCCCCCCCCuB5Exo......",
".....YZ01rGHuuuuuuuuuuuuHIeS.n......",
".....disBGrLMllllllllllMNeOPQ.......",
".....cjtuHLRbbbbbbbbbbbbaSTTPx......",
".....bUuCulb.............VTWTF......",
".....bluCulb.............VXWXV......",
".....bluCulb.............VXWXV......",
".....bluCulb.............VXWXV......",
".....bluCulb.............VXWXV......",
".....bluCulb.............VXWXV......",
".....bluCulb.............VXWXV......",
".....bluCulb.............VXWXV......",
".....bluCulb.............VXWXV......",
".....bluCulb.............VXWXV......",
".....bUuCulb.............VTWTF......",
".....cjtuHLRbbbbbbbbbbbbaSTTPx......",
".....disBGrLMllllllllllMNeOPQ.......",
".....chrArGHuuuuuuuuuuuuHIeJ.K......",
".....ygqzABuCCCCCCCCCCCCuBDEFn......",
".....cfpqrstuuuuuuuuuuuutvewxo......",
".....#efghijkllllllllllkjemno.......",
"......#abcdabbbbbbbbbbbba#..........",
"....................................",
"....................................",
"....................................",
"....................................",
"....................................",
"....................................",
"...................................."};
