/* XPM */
static const char *display_0_xpm[]={
"36 56 41 1",
". c #000000",
"# c #000a00",
"x c #002500",
"a c #002600",
"b c #002e00",
"o c #003500",
"f c #004100",
"y c #004500",
"s c #007000",
"c c #052005",
"d c #062406",
"E c #062e06",
"e c #063206",
"j c #072d07",
"k c #073a07",
"J c #073f07",
"g c #07bc07",
"h c #07d507",
"z c #07d607",
"D c #083508",
"w c #08d608",
"i c #08d708",
"C c #094209",
"K c #094a09",
"F c #09a809",
"p c #09ae09",
"A c #09c009",
"v c #09c209",
"l c #09c709",
"L c #0a410a",
"G c #0a4a0a",
"B c #0ac90a",
"t c #0acc0a",
"q c #0aee0a",
"m c #0af60a",
"H c #0b450b",
"I c #0b490b",
"u c #0bf60b",
"n c #0bfe0b",
"M c #0d550d",
"r c #0dff0d",
"....................................",
"....................................",
"....................................",
"....................................",
"....................................",
"....................................",
"..........#abbbbbbbbbbbba#..........",
".......cdefghiiiiiiiiiihgfedc.......",
"......cjkflmnnnnnnnnnnnnmlfkjc......",
"......dkopqnrrrrrrrrrrrrnqpokd......",
"......efpstunnnnnnnnnnnnutspfe......",
".....#flqtsvwiiiiiiiiiiwvstqlf#.....",
".....xgmnuvybbbbbbbbbbbbyvunmgx.....",
".....bznrnib............binrnzb.....",
".....binrnib............binrnib.....",
".....binrnib............binrnib.....",
".....binrnib............binrnib.....",
".....binrnib............binrnib.....",
".....binrnib............binrnib.....",
".....binrnib............binrnib.....",
".....binrnib............binrnib.....",
".....binrnib............binrnib.....",
".....binrnib............binrnib.....",
".....bznrnib............binrnzb.....",
".....xgmnuAx............xAunmgx.....",
".....#flqBfCDDDDDDDDDDDDCfBqlf#.....",
"......EfFfGHHIIIIIIIIIIHHGfFfE......",
"......cJoKLHMMMMMMMMMMMMHLKoJc......",
"......EfFfGHHIIIIIIIIIIHHGfFfE......",
".....#flqBfCDDDDDDDDDDDDCfBqlf#.....",
".....xgmnuAx............xAunmgx.....",
".....bznrnib............binrnzb.....",
".....binrnib............binrnib.....",
".....binrnib............binrnib.....",
".....binrnib............binrnib.....",
".....binrnib............binrnib.....",
".....binrnib............binrnib.....",
".....binrnib............binrnib.....",
".....binrnib............binrnib.....",
".....binrnib............binrnib.....",
".....binrnib............binrnib.....",
".....bznrnib............binrnzb.....",
".....xgmnuvybbbbbbbbbbbbyvunmgx.....",
".....#flqtsvwiiiiiiiiiiwvstqlf#.....",
"......efpstunnnnnnnnnnnnutspfe......",
"......dkopqnrrrrrrrrrrrrnqpokd......",
"......cjkflmnnnnnnnnnnnnmlfkjc......",
".......cdefghiiiiiiiiiihgfedc.......",
"..........#abbbbbbbbbbbba#..........",
"....................................",
"....................................",
"....................................",
"....................................",
"....................................",
"....................................",
"...................................."};
