/* XPM */
static const char *display_7_xpm[]={
"36 56 48 1",
". c #000000",
"# c #000a00",
"p c #001d00",
"K c #002500",
"a c #002600",
"b c #002e00",
"u c #003500",
"f c #004100",
"J c #004500",
"A c #007000",
"c c #052005",
"d c #062406",
"v c #062806",
"Q c #062e06",
"e c #063206",
"j c #072d07",
"o c #073107",
"k c #073a07",
"S c #073f07",
"g c #07bc07",
"h c #07d507",
"N c #07d607",
"M c #083508",
"F c #08d608",
"i c #08d708",
"B c #093909",
"T c #093d09",
"I c #094209",
"w c #094509",
"R c #094a09",
"P c #09a809",
"q c #09aa09",
"t c #09ae09",
"E c #09c009",
"G c #09c209",
"l c #09c709",
"C c #0a410a",
"D c #0a4a0a",
"x c #0ac90a",
"z c #0acc0a",
"r c #0aee0a",
"m c #0af60a",
"H c #0b450b",
"O c #0b490b",
"y c #0bf60b",
"n c #0bfe0b",
"L c #0d550d",
"s c #0dff0d",
"....................................",
"....................................",
"....................................",
"....................................",
"....................................",
"....................................",
"..........#abbbbbbbbbbbba#..........",
".......cdefghiiiiiiiiiihgfedc.......",
"......cjkflmnnnnnnnnnnnnmlfkjc......",
"......dopqrnssssssssssssnrtukd......",
"......v.wfxynnnnnnnnnnnnyzAtfe......",
".......BCDfEFiiiiiiiiiiFGAzrlf#.....",
"......jCHHIabbbbbbbbbbbbJGynmgK.....",
"......oHLHM.............binsnNb.....",
"......MOLOM.............binsnib.....",
"......MOLOM.............binsnib.....",
"......MOLOM.............binsnib.....",
"......MOLOM.............binsnib.....",
"......MOLOM.............binsnib.....",
"......MOLOM.............binsnib.....",
"......MOLOM.............binsnib.....",
"......MOLOM.............binsnib.....",
"......MOLOM.............binsnib.....",
"......oHLHM.............binsnNb.....",
"......jCHHB.............KEynmgK.....",
".......BCC.BMMMMMMMMMMMMIfxrlf#.....",
"......d.B.CHHOOOOOOOOOOHHDfPfQ......",
"......cj.BCHLLLLLLLLLLLLHCRuSc......",
"......d.B.CHHOOOOOOOOOOHHDfPfQ......",
".......BCC.BMMMMMMMMMMMMIfxrlf#.....",
"......jCHHB.............KEynmgK.....",
"......oHLHM.............binsnNb.....",
"......MOLOM.............binsnib.....",
"......MOLOM.............binsnib.....",
"......MOLOM.............binsnib.....",
"......MOLOM.............binsnib.....",
"......MOLOM.............binsnib.....",
"......MOLOM.............binsnib.....",
"......MOLOM.............binsnib.....",
"......MOLOM.............binsnib.....",
"......MOLOM.............binsnib.....",
"......oHLHM.............binsnNb.....",
"......jCHHB.............KEynmgK.....",
".......BCC.BMMMMMMMMMMMMIfxrlf#.....",
"......v.T.CHHOOOOOOOOOOHHDfqfe......",
"......do.TCHLLLLLLLLLLLLHCwpkd......",
"......cjo.BCHOOOOOOOOOOHCB.ojc......",
".......cdv.joMMMMMMMMMMoj.vdc.......",
"....................................",
"....................................",
"....................................",
"....................................",
"....................................",
"....................................",
"....................................",
"...................................."};
