/* XPM */
static const char *display_4_xpm[]={
"36 56 48 1",
". c #000000",
"r c #000a00",
"k c #001d00",
"w c #002500",
"S c #002600",
"C c #002e00",
"O c #003500",
"o c #004100",
"H c #004500",
"Q c #004c00",
"J c #007000",
"# c #052005",
"a c #062406",
"b c #062806",
"L c #062e06",
"n c #063206",
"c c #072d07",
"d c #073107",
"N c #073607",
"j c #073a07",
"R c #073f07",
"x c #07bc07",
"D c #07d607",
"e c #083508",
"K c #08d608",
"F c #08d708",
"f c #093909",
"T c #093d09",
"v c #094209",
"l c #094509",
"p c #09aa09",
"M c #09ac09",
"P c #09b009",
"B c #09c009",
"G c #09c209",
"s c #09c709",
"g c #0a410a",
"q c #0a4a0a",
"u c #0ac90a",
"I c #0acc0a",
"t c #0aee0a",
"y c #0af60a",
"h c #0b450b",
"i c #0b490b",
"A c #0bf60b",
"z c #0bfe0b",
"m c #0d550d",
"E c #0dff0d",
"....................................",
"....................................",
"....................................",
"....................................",
"....................................",
"....................................",
"....................................",
".......#ab.cdeeeeeeeeeedc.ba#.......",
"......#cd.fghiiiiiiiiiihgf.dc#......",
"......ajklghmmmmmmmmmmmmhglkja......",
"......nopoqhhiiiiiiiiiihhqopon......",
".....rostuoveeeeeeeeeeeevoutsor.....",
".....wxyzABw............wBAzyxw.....",
".....CDzEzFC............CFzEzDC.....",
".....CFzEzFC............CFzEzFC.....",
".....CFzEzFC............CFzEzFC.....",
".....CFzEzFC............CFzEzFC.....",
".....CFzEzFC............CFzEzFC.....",
".....CFzEzFC............CFzEzFC.....",
".....CFzEzFC............CFzEzFC.....",
".....CFzEzFC............CFzEzFC.....",
".....CFzEzFC............CFzEzFC.....",
".....CFzEzFC............CFzEzFC.....",
".....CDzEzFC............CFzEzDC.....",
".....wxyzAGHCCCCCCCCCCCCHGAzyxw.....",
".....rostIJGKFFFFFFFFFFKGJItsor.....",
"......LoMJIAzzzzzzzzzzzzAIJMoL......",
"......#NOMtzEEEEEEEEEEEEztPQR#......",
"......a.vouAzzzzzzzzzzzzAIJMoL......",
".......fgqoBKFFFFFFFFFFKGJItsor.....",
"......cghhvSCCCCCCCCCCCCHGAzyxw.....",
"......dhmhe.............CFzEzDC.....",
"......eimie.............CFzEzFC.....",
"......eimie.............CFzEzFC.....",
"......eimie.............CFzEzFC.....",
"......eimie.............CFzEzFC.....",
"......eimie.............CFzEzFC.....",
"......eimie.............CFzEzFC.....",
"......eimie.............CFzEzFC.....",
"......eimie.............CFzEzFC.....",
"......eimie.............CFzEzFC.....",
"......dhmhe.............CFzEzDC.....",
"......cghhf.............wBAzyxw.....",
".......fgg.feeeeeeeeeeeevoutsor.....",
"......b.T.ghhiiiiiiiiiihhqopon......",
"......ad.Tghmmmmmmmmmmmmhglkja......",
"......#cd.fghiiiiiiiiiihgf.dc#......",
".......#ab.cdeeeeeeeeeedc.ba#.......",
"....................................",
"....................................",
"....................................",
"....................................",
"....................................",
"....................................",
"....................................",
"...................................."};
