/* XPM */
static const char *display_c_xpm[]={
"36 56 55 1",
". c #000000",
"# c #000a00",
"P c #001300",
"t c #001d00",
"S c #002400",
"H c #002500",
"a c #002600",
"W c #002d00",
"b c #002e00",
"o c #003500",
"f c #004100",
"I c #004500",
"Z c #004c00",
"Q c #005600",
"U c #006f00",
"v c #007000",
"c c #052005",
"X c #05bf05",
"d c #062406",
"A c #062806",
"e c #063206",
"T c #069b06",
"j c #072d07",
"u c #073107",
"k c #073a07",
"Y c #07a907",
"g c #07bc07",
"h c #07d507",
"L c #07d607",
"M c #083508",
"C c #08d608",
"i c #08d708",
"G c #093909",
"J c #094209",
"z c #094509",
"0 c #094a09",
"s c #09aa09",
"V c #09ac09",
"p c #09ae09",
"D c #09c009",
"B c #09c209",
"l c #09c709",
"R c #09c909",
"F c #0a410a",
"E c #0a4a0a",
"y c #0ac90a",
"w c #0acc0a",
"q c #0aee0a",
"m c #0af60a",
"K c #0b450b",
"O c #0b490b",
"x c #0bf60b",
"n c #0bfe0b",
"N c #0d550d",
"r c #0dff0d",
"....................................",
"....................................",
"....................................",
"....................................",
"....................................",
"....................................",
"..........#abbbbbbbbbbbba#..........",
".......cdefghiiiiiiiiiihgfedc.......",
"......cjkflmnnnnnnnnnnnnmlfkjc......",
"......dkopqnrrrrrrrrrrrrnqstud......",
"......efpvwxnnnnnnnnnnnnxyfz.A......",
".....#flqwvBCiiiiiiiiiiCDfEFG.......",
".....HgmnxBIbbbbbbbbbbbbaJKKFj......",
".....bLnrnib.............MKNKu......",
".....binrnib.............MONOM......",
".....binrnib.............MONOM......",
".....binrnib.............MONOM......",
".....binrnib.............MONOM......",
".....binrnib.............MONOM......",
".....binrnib.............MONOM......",
".....binrnib.............MONOM......",
".....binrnib.............MONOM......",
".....binrnib.............MONOM......",
".....bLnrnib.............MKNKu......",
".....HgmnxDH.............GKKFj......",
".....PQRqyfJMMMMMMMMMMMMG.FFG.......",
".....STUVfEKKOOOOOOOOOOKKF.G.d......",
".....WXYZ0FKNNNNNNNNNNNNKFG.jc......",
".....STUVfEKKOOOOOOOOOOKKF.G.d......",
".....PQRqyfJMMMMMMMMMMMMG.FFG.......",
".....HgmnxDH.............GKKFj......",
".....bLnrnib.............MKNKu......",
".....binrnib.............MONOM......",
".....binrnib.............MONOM......",
".....binrnib.............MONOM......",
".....binrnib.............MONOM......",
".....binrnib.............MONOM......",
".....binrnib.............MONOM......",
".....binrnib.............MONOM......",
".....binrnib.............MONOM......",
".....binrnib.............MONOM......",
".....bLnrnib.............MKNKu......",
".....HgmnxBIbbbbbbbbbbbbaJKKFj......",
".....#flqwvBCiiiiiiiiiiCDfEFG.......",
"......efpvwxnnnnnnnnnnnnxyfz.A......",
"......dkopqnrrrrrrrrrrrrnqstud......",
"......cjkflmnnnnnnnnnnnnmlfkjc......",
".......cdefghiiiiiiiiiihgfedc.......",
"..........#abbbbbbbbbbbba#..........",
"....................................",
"....................................",
"....................................",
"....................................",
"....................................",
"....................................",
"...................................."};
